<svg data-v-423bf9ae="" xmlns="http://www.w3.org/2000/svg" viewBox="0 0 225.10346939504356 60" class="font"><!----><!----><!----><g data-v-423bf9ae="" id="ac7fc28f-c703-450c-80e2-3b4bcbdb850b" fill="#303841" transform="matrix(8.275862613274318,0,0,8.275862613274318,-4.5517254416504755,-56.44138420475825)"><path d="M6.45 13.17L6.45 13.17Q6.45 13.27 6.40 13.31L6.40 13.31L6.40 13.31Q6.34 13.36 6.24 13.31L6.24 13.31L0.69 10.74L0.69 10.74Q0.55 10.67 0.55 10.51L0.55 10.51L0.55 9.93L0.55 9.93Q0.55 9.77 0.69 9.70L0.69 9.70L6.24 7.13L6.24 7.13Q6.30 7.10 6.33 7.10L6.33 7.10L6.33 7.10Q6.45 7.10 6.45 7.27L6.45 7.27L6.45 7.85L6.45 7.85Q6.45 7.99 6.31 8.06L6.31 8.06L1.64 10.18L1.64 10.18Q1.55 10.22 1.64 10.26L1.64 10.26L6.31 12.38L6.31 12.38Q6.45 12.45 6.45 12.59L6.45 12.59L6.45 13.17ZM11.06 6.82L11.06 6.82Q12.17 6.82 12.83 7.48L12.83 7.48L12.83 7.48Q13.50 8.13 13.50 9.24L13.50 9.24L13.50 13.82L13.50 13.82Q13.50 14 13.31 14L13.31 14L12.68 14L12.68 14Q12.50 14 12.50 13.82L12.50 13.82L12.50 9.44L12.50 9.44Q12.50 8.65 12.04 8.17L12.04 8.17L12.04 8.17Q11.58 7.69 10.84 7.69L10.84 7.69L10.84 7.69Q10.12 7.69 9.65 8.09L9.65 8.09L9.65 8.09Q9.18 8.50 9.11 9.16L9.11 9.16L9.11 13.82L9.11 13.82Q9.11 14 8.93 14L8.93 14L8.30 14L8.30 14Q8.12 14 8.12 13.82L8.12 13.82L8.12 7.10L8.12 7.10Q8.12 6.92 8.30 6.92L8.30 6.92L8.93 6.92L8.93 6.92Q9.11 6.92 9.11 7.10L9.11 7.10L9.11 7.62L9.11 7.62Q9.11 7.66 9.14 7.68L9.14 7.68L9.14 7.68Q9.17 7.70 9.18 7.66L9.18 7.66L9.18 7.66Q9.80 6.82 11.06 6.82L11.06 6.82ZM17.99 14.07L17.99 14.07Q17.21 14.07 16.60 13.82L16.60 13.82L16.60 13.82Q15.99 13.57 15.66 13.15L15.66 13.15L15.66 13.15Q15.33 12.73 15.33 12.21L15.33 12.21L15.33 12.08L15.33 12.08Q15.33 11.90 15.51 11.90L15.51 11.90L16.11 11.90L16.11 11.90Q16.20 11.90 16.25 11.94L16.25 11.94L16.25 11.94Q16.30 11.97 16.30 12.03L16.30 12.03L16.30 12.15L16.30 12.15Q16.30 12.61 16.77 12.96L16.77 12.96L16.77 12.96Q17.25 13.30 17.98 13.30L17.98 13.30L17.98 13.30Q18.70 13.30 19.15 12.97L19.15 12.97L19.15 12.97Q19.60 12.64 19.60 12.14L19.60 12.14L19.60 12.14Q19.60 11.79 19.38 11.56L19.38 11.56L19.38 11.56Q19.15 11.34 18.83 11.21L18.83 11.21L18.83 11.21Q18.51 11.09 17.86 10.89L17.86 10.89L17.86 10.89Q17.08 10.67 16.58 10.44L16.58 10.44L16.58 10.44Q16.07 10.22 15.72 9.82L15.72 9.82L15.72 9.82Q15.37 9.42 15.37 8.81L15.37 8.81L15.37 8.81Q15.37 7.91 16.08 7.38L16.08 7.38L16.08 7.38Q16.79 6.85 17.93 6.85L17.93 6.85L17.93 6.85Q18.70 6.85 19.30 7.10L19.30 7.10L19.30 7.10Q19.89 7.35 20.22 7.79L20.22 7.79L20.22 7.79Q20.54 8.23 20.54 8.78L20.54 8.78L20.54 8.78Q20.54 8.96 20.36 8.96L20.36 8.96L19.78 8.96L19.78 8.96Q19.60 8.96 19.60 8.86L19.60 8.86L19.60 8.78L19.60 8.78Q19.60 8.30 19.14 7.98L19.14 7.98L19.14 7.98Q18.69 7.66 17.92 7.66L17.92 7.66L17.92 7.66Q17.21 7.66 16.77 7.95L16.77 7.95L16.77 7.95Q16.34 8.23 16.34 8.74L16.34 8.74L16.34 8.74Q16.34 9.21 16.75 9.46L16.75 9.46L16.75 9.46Q17.16 9.72 18.05 9.97L18.05 9.97L18.05 9.97Q18.86 10.19 19.36 10.40L19.36 10.40L19.36 10.40Q19.87 10.61 20.23 11.02L20.23 11.02L20.23 11.02Q20.59 11.42 20.59 12.07L20.59 12.07L20.59 12.07Q20.59 12.98 19.89 13.52L19.89 13.52L19.89 13.52Q19.18 14.07 17.99 14.07L17.99 14.07ZM22.05 13.31L22.05 13.31Q21.99 13.34 21.97 13.34L21.97 13.34L21.97 13.34Q21.84 13.34 21.84 13.17L21.84 13.17L21.84 12.59L21.84 12.59Q21.84 12.45 21.98 12.38L21.98 12.38L26.66 10.26L26.66 10.26Q26.74 10.22 26.66 10.18L26.66 10.18L21.98 8.06L21.98 8.06Q21.84 7.99 21.84 7.85L21.84 7.85L21.84 7.27L21.84 7.27Q21.84 7.15 21.90 7.12L21.90 7.12L21.90 7.12Q21.95 7.08 22.05 7.13L22.05 7.13L27.61 9.70L27.61 9.70Q27.75 9.77 27.75 9.93L27.75 9.93L27.75 10.51L27.75 10.51Q27.75 10.67 27.61 10.74L27.61 10.74L22.05 13.31Z"></path></g><!----><!----></svg>