<svg data-v-423bf9ae="" xmlns="http://www.w3.org/2000/svg" viewBox="0 0 196 90" class="iconLeft"><!----><!----><!----><g data-v-423bf9ae="" id="8a93cfc4-457f-438a-a92f-632f09134443" fill="#303841" transform="matrix(5.758157347474804,0,0,5.758157347474804,102.57198180170388,-30.201534151699377)"><path d="M1.29 8.34L2.58 7.85L2.58 10.57L2.58 10.57Q2.88 9.39 3.60 8.63L3.60 8.63L3.60 8.63Q4.33 7.87 5.52 7.87L5.52 7.87L5.52 7.87Q6.36 7.87 6.79 8.44L6.79 8.44L6.79 8.44Q7.22 9.02 7.22 9.87L7.22 9.87L7.22 16.59L7.22 16.59Q7.22 16.98 7.38 17.22L7.38 17.22L7.38 17.22Q7.55 17.46 7.84 17.46L7.84 17.46L7.84 17.46Q8.08 17.46 8.32 17.31L8.32 17.31L8.32 17.31Q8.55 17.16 8.68 16.95L8.68 16.95L8.88 17.14L8.88 17.14Q8.69 17.56 8.29 17.86L8.29 17.86L8.29 17.86Q7.88 18.16 7.35 18.16L7.35 18.16L7.35 18.16Q6.71 18.16 6.31 17.72L6.31 17.72L6.31 17.72Q5.92 17.28 5.92 16.44L5.92 16.44L5.92 10.43L5.92 10.43Q5.92 9.65 5.75 9.13L5.75 9.13L5.75 9.13Q5.57 8.61 4.94 8.61L4.94 8.61L4.94 8.61Q4.14 8.61 3.61 9.40L3.61 9.40L3.61 9.40Q3.08 10.19 2.83 11.26L2.83 11.26L2.83 11.26Q2.58 12.32 2.58 13.09L2.58 13.09L2.58 17.75L1.29 18.27L1.29 8.34ZM13.02 7.90L13.02 7.90Q13.96 7.90 14.80 8.32L14.80 8.32L14.80 8.32Q15.64 8.75 16.21 9.53L16.21 9.53L15.12 10.88L15.12 10.88Q14.77 9.90 14.08 9.25L14.08 9.25L14.08 9.25Q13.38 8.61 12.43 8.61L12.43 8.61L12.43 8.61Q11.52 8.61 11.02 9.13L11.02 9.13L11.02 9.13Q10.51 9.65 10.51 10.46L10.51 10.46L10.51 10.46Q10.51 11.21 10.88 11.72L10.88 11.72L10.88 11.72Q11.24 12.22 11.76 12.53L11.76 12.53L11.76 12.53Q12.28 12.84 13.16 13.23L13.16 13.23L13.16 13.23Q14 13.61 14.48 13.89L14.48 13.89L14.48 13.89Q14.97 14.17 15.30 14.62L15.30 14.62L15.30 14.62Q15.64 15.06 15.64 15.72L15.64 15.72L15.64 15.72Q15.65 16.94 14.85 17.60L14.85 17.60L14.85 17.60Q14.06 18.26 12.78 18.26L12.78 18.26L12.78 18.26Q11.84 18.26 11.00 17.89L11.00 17.89L11.00 17.89Q10.15 17.51 9.65 16.76L9.65 16.76L10.74 15.54L10.74 15.54Q11.21 16.66 11.90 17.13L11.90 17.13L11.90 17.13Q12.59 17.60 13.23 17.60L13.23 17.60L13.23 17.60Q13.83 17.60 14.26 17.27L14.26 17.27L14.26 17.27Q14.69 16.94 14.69 16.41L14.69 16.41L14.69 16.41Q14.69 15.92 14.38 15.55L14.38 15.55L14.38 15.55Q14.08 15.18 13.64 14.92L13.64 14.92L13.64 14.92Q13.19 14.66 12.42 14.31L12.42 14.31L12.42 14.31Q11.44 13.86 10.85 13.50L10.85 13.50L10.85 13.50Q10.26 13.13 9.84 12.54L9.84 12.54L9.84 12.54Q9.42 11.94 9.42 11.09L9.42 11.09L9.42 11.09Q9.42 10.19 9.89 9.46L9.89 9.46L9.89 9.46Q10.36 8.72 11.19 8.31L11.19 8.31L11.19 8.31Q12.01 7.90 13.02 7.90L13.02 7.90Z"></path></g><!----><g data-v-423bf9ae="" id="d1d0da91-a1bd-4a1a-95f5-cf0a79118e3d" transform="matrix(2.8125,0,0,2.8125,0,0)" stroke="none" fill="#303841"><path d="M0 16.024L15.976 32 32 15.976 16.024 0 0 16.024zm15.989 7.323l-7.336-7.336 14.694-.022-7.358 7.358z"></path></g><!----></svg>