<svg data-v-423bf9ae="" xmlns="http://www.w3.org/2000/svg" viewBox="0 0 212 90" class="iconLeft"><!----><!----><!----><g data-v-423bf9ae="" id="77a4353c-9455-495a-9723-20eb418a8033" fill="#303841" transform="matrix(5.6980058425006375,0,0,5.6980058425006375,103.61823590289563,-29.444447135150497)"><path d="M1.12 8.37L2.87 7.80L2.87 10.25L2.87 10.25Q3.67 7.87 5.67 7.87L5.67 7.87L5.67 7.87Q6.55 7.87 7.01 8.45L7.01 8.45L7.01 8.45Q7.48 9.03 7.48 9.88L7.48 9.88L7.48 16.67L7.48 16.67Q7.48 16.97 7.60 17.16L7.60 17.16L7.60 17.16Q7.73 17.35 7.98 17.35L7.98 17.35L7.98 17.35Q8.20 17.35 8.42 17.21L8.42 17.21L8.42 17.21Q8.64 17.08 8.79 16.87L8.79 16.87L9.10 17.15L9.10 17.15Q8.81 17.63 8.37 17.91L8.37 17.91L8.37 17.91Q7.94 18.19 7.29 18.19L7.29 18.19L7.29 18.19Q6.55 18.19 6.14 17.72L6.14 17.72L6.14 17.72Q5.73 17.26 5.73 16.32L5.73 16.32L5.73 10.35L5.73 10.35Q5.73 9.60 5.59 9.14L5.59 9.14L5.59 9.14Q5.45 8.67 4.93 8.67L4.93 8.67L4.93 8.67Q4.26 8.67 3.79 9.39L3.79 9.39L3.79 9.39Q3.33 10.12 3.10 11.09L3.10 11.09L3.10 11.09Q2.87 12.05 2.87 12.70L2.87 12.70L2.87 17.74L1.12 18.33L1.12 8.37ZM13.24 7.90L13.24 7.90Q14.29 7.90 15.16 8.32L15.16 8.32L15.16 8.32Q16.03 8.75 16.63 9.55L16.63 9.55L15.39 11.05L15.39 11.05Q15.02 10.01 14.35 9.34L14.35 9.34L14.35 9.34Q13.68 8.67 12.75 8.67L12.75 8.67L12.75 8.67Q11.96 8.67 11.48 9.17L11.48 9.17L11.48 9.17Q11.00 9.67 11.00 10.44L11.00 10.44L11.00 10.44Q11.00 11.12 11.33 11.57L11.33 11.57L11.33 11.57Q11.66 12.03 12.15 12.31L12.15 12.31L12.15 12.31Q12.63 12.60 13.45 12.98L13.45 12.98L13.45 12.98Q14.29 13.37 14.80 13.66L14.80 13.66L14.80 13.66Q15.30 13.96 15.64 14.45L15.64 14.45L15.64 14.45Q15.99 14.94 15.99 15.64L15.99 15.64L15.99 15.64Q15.99 16.87 15.11 17.56L15.11 17.56L15.11 17.56Q14.24 18.24 12.84 18.24L12.84 18.24L12.84 18.24Q11.87 18.24 10.99 17.84L10.99 17.84L10.99 17.84Q10.11 17.44 9.62 16.74L9.62 16.74L10.82 15.36L10.82 15.36Q11.21 16.37 11.87 16.97L11.87 16.97L11.87 16.97Q12.52 17.57 13.27 17.57L13.27 17.57L13.27 17.57Q13.85 17.57 14.20 17.22L14.20 17.22L14.20 17.22Q14.56 16.87 14.56 16.39L14.56 16.39L14.56 16.39Q14.56 15.93 14.28 15.58L14.28 15.58L14.28 15.58Q14 15.22 13.57 14.96L13.57 14.96L13.57 14.96Q13.13 14.70 12.40 14.35L12.40 14.35L12.40 14.35Q11.47 13.89 10.88 13.52L10.88 13.52L10.88 13.52Q10.29 13.15 9.88 12.54L9.88 12.54L9.88 12.54Q9.46 11.94 9.46 11.09L9.46 11.09L9.46 11.09Q9.46 10.18 9.96 9.45L9.96 9.45L9.96 9.45Q10.46 8.72 11.33 8.31L11.33 8.31L11.33 8.31Q12.19 7.90 13.24 7.90L13.24 7.90ZM19.00 17.35L19.00 17.35Q19.00 17.72 18.71 18.00L18.71 18.00L18.71 18.00Q18.42 18.27 18.03 18.27L18.03 18.27L18.03 18.27Q17.64 18.27 17.36 18.00L17.36 18.00L17.36 18.00Q17.08 17.74 17.08 17.35L17.08 17.35L17.08 17.35Q17.08 16.97 17.36 16.68L17.36 16.68L17.36 16.68Q17.64 16.39 18.03 16.39L18.03 16.39L18.03 16.39Q18.42 16.39 18.71 16.68L18.71 16.68L18.71 16.68Q19.00 16.97 19.00 17.35L19.00 17.35Z"></path></g><!----><g data-v-423bf9ae="" id="dc56d701-8d16-4912-853b-6e4e78ecb07f" transform="matrix(2.8125,0,0,2.8125,0,0)" stroke="none" fill="#303841"><path d="M0 16.024L15.976 32 32 15.976 16.024 0 0 16.024zm15.989 7.323l-7.336-7.336 14.694-.022-7.358 7.358z"></path></g><!----></svg>