<svg data-v-fde0c5aa="" xmlns="http://www.w3.org/2000/svg" viewBox="0 0 300 300" class="font"><!----><defs data-v-fde0c5aa=""><!----></defs><rect data-v-fde0c5aa="" fill="transparent" x="0" y="0" width="300px" height="300px" class="logo-background-square"></rect><defs data-v-fde0c5aa=""><!----></defs><g data-v-fde0c5aa="" id="04d86c03-ba96-4170-96fe-06f1e6bef7c9" fill="#303841" transform="matrix(12.842964756697821,0,0,12.842964756697821,33.83537667182493,36.91769445991529)"><path d="M8.46 11.58L2.66 4.02C2.58 3.93 2.51 3.86 2.45 3.84C2.39 3.81 2.30 3.79 2.18 3.79L0.48 3.79L0.48 4.40C0.48 4.54 0.55 4.63 0.69 4.66C0.77 4.69 1.04 4.75 1.48 4.83L1.48 12.81L0.69 12.98C0.55 13.01 0.48 13.09 0.48 13.23L0.48 13.83L3.81 13.83L3.81 13.23C3.81 13.09 3.75 13.01 3.61 12.98C3.54 12.96 3.23 12.89 2.67 12.81L2.67 6.68C2.67 6.48 2.67 6.27 2.65 6.03L8.46 13.59C8.60 13.76 8.74 13.83 8.93 13.83L9.62 13.83L9.62 4.83L10.42 4.66C10.56 4.63 10.64 4.55 10.64 4.41L10.64 3.79L9.62 3.79L8.43 3.79L7.28 3.79L7.28 4.41C7.28 4.55 7.36 4.63 7.50 4.66C7.59 4.68 7.88 4.75 8.43 4.83L8.43 10.91C8.43 11.16 8.43 11.41 8.46 11.61ZM16.13 8.51C15.79 8.37 15.20 8.16 14.36 7.88C14.07 7.78 13.80 7.67 13.58 7.53C13.08 7.25 12.82 6.86 12.82 6.37C12.82 5.92 12.99 5.53 13.30 5.25C13.64 4.94 14.11 4.80 14.70 4.80C15.18 4.80 15.74 4.90 16.35 5.07C16.41 5.88 16.45 6.29 16.45 6.31C16.48 6.48 16.58 6.55 16.74 6.55L17.42 6.55L17.42 4.24C16.46 3.85 15.53 3.68 14.60 3.68C13.68 3.68 12.94 3.96 12.36 4.52C11.83 5.05 11.56 5.67 11.56 6.43C11.56 7.22 11.80 7.85 12.31 8.30C12.53 8.50 12.80 8.68 13.08 8.81C13.36 8.93 13.94 9.11 14.84 9.39C15.12 9.48 15.37 9.59 15.60 9.73C16.10 10.01 16.35 10.43 16.35 10.96C16.35 11.52 16.18 11.96 15.82 12.29C15.65 12.46 15.43 12.59 15.18 12.67C14.92 12.75 14.59 12.81 14.14 12.81C13.69 12.81 13.13 12.67 12.43 12.42C12.43 12.42 12.42 12.19 12.39 11.80C12.36 11.41 12.33 11.17 12.32 11.12C12.29 10.95 12.21 10.88 12.04 10.88L11.35 10.88L11.35 13.40L11.76 13.54C12.04 13.62 12.40 13.72 12.88 13.80C13.36 13.89 13.82 13.93 14.25 13.93C15.29 13.93 16.13 13.64 16.74 13.02C17.33 12.43 17.61 11.69 17.61 10.77C17.61 9.72 17.11 8.96 16.10 8.51Z"></path></g><!----><!----></svg>